<?xml version="1.0" encoding="UTF-8" standalone="no"?>
<!DOCTYPE svg PUBLIC "-//W3C//DTD SVG 1.1//EN" "http://www.w3.org/Graphics/SVG/1.1/DTD/svg11.dtd">
<svg width="100%" height="100%" viewBox="0 0 24 24" version="1.1" xmlns="http://www.w3.org/2000/svg" xmlns:xlink="http://www.w3.org/1999/xlink" xml:space="preserve" xmlns:serif="http://www.serif.com/" style="fill-rule:evenodd;clip-rule:evenodd;stroke-linejoin:round;stroke-miterlimit:2;">
    <g>
        <rect x="0" y="0" width="24" height="24" style="fill:none;fill-rule:nonzero;"/>
        <g transform="matrix(1.1128,0,0,1,-1.35364,0)">
            <path d="M5,12.5C5,12.813 5.461,13.358 6.53,13.893C7.914,14.585 9.877,15 12,15C14.123,15 16.086,14.585 17.47,13.893C18.539,13.358 19,12.813 19,12.5L19,10.329C17.35,11.349 14.827,12 12,12C9.173,12 6.65,11.348 5,10.329L5,12.5ZM19,15.329C17.35,16.349 14.827,17 12,17C9.173,17 6.65,16.348 5,15.329L5,17.5C5,17.813 5.461,18.358 6.53,18.893C7.914,19.585 9.877,20 12,20C14.123,20 16.086,19.585 17.47,18.893C18.539,18.358 19,17.813 19,17.5L19,15.329ZM3,17.5L3,7.5C3,5.015 7.03,3 12,3C16.97,3 21,5.015 21,7.5L21,17.5C21,19.985 16.97,22 12,22C7.03,22 3,19.985 3,17.5ZM12,10C14.123,10 16.086,9.585 17.47,8.893C18.539,8.358 19,7.813 19,7.5C19,7.187 18.539,6.642 17.47,6.107C16.086,5.415 14.123,5 12,5C9.877,5 7.914,5.415 6.53,6.107C5.461,6.642 5,7.187 5,7.5C5,7.813 5.461,8.358 6.53,8.893C7.914,9.585 9.877,10 12,10Z" style="fill-rule:nonzero;"/>
        </g>
        <path d="M3.362,21.693C6.252,18.246 8.732,14.463 11.844,11.202C13.632,9.329 15.555,7.556 17.552,5.908C18.612,5.033 19.688,4.177 20.756,3.311C21.226,2.93 21.755,2.564 22.195,2.144C22.594,1.763 22.609,1.129 22.228,0.73C21.847,0.331 21.213,0.317 20.814,0.698C20.412,1.081 19.925,1.41 19.496,1.757C18.424,2.627 17.344,3.487 16.279,4.365C14.221,6.063 12.24,7.891 10.397,9.821C7.255,13.113 4.747,16.928 1.83,20.408C1.475,20.831 1.53,21.462 1.953,21.817C2.376,22.172 3.007,22.116 3.362,21.693Z" style="fill:rgb(255,103,20);"/>
        <path d="M19.822,22.399C19.992,23.125 20.683,23.628 21.443,23.545C22.266,23.456 22.862,22.715 22.772,21.892C22.735,21.545 22.602,21.175 22.378,20.82C22.129,20.424 21.726,20.029 21.495,19.751C20.435,18.473 19.244,17.26 18.107,16.06C16.969,14.859 15.768,13.709 14.678,12.463C12.594,10.082 10.689,7.531 8.88,4.936C8.268,4.058 7.735,3.126 7.133,2.239C6.951,1.971 6.77,1.701 6.586,1.433C6.565,1.402 6.524,1.352 6.484,1.304C6.236,0.817 5.73,0.483 5.147,0.483C4.319,0.483 3.647,1.156 3.647,1.983C3.647,2.368 4.192,3.234 4.192,3.234C4.192,3.234 4.136,3.164 4.115,3.134C4.296,3.396 4.472,3.66 4.651,3.923C5.259,4.82 5.8,5.763 6.419,6.652C8.291,9.337 10.264,11.975 12.42,14.439C13.536,15.715 14.764,16.894 15.93,18.124C17.022,19.276 18.168,20.439 19.185,21.666C19.332,21.843 19.725,22.29 19.822,22.399Z" style="fill:rgb(214,64,0);"/>
    </g>
</svg>
